<svg width="100" height="100" viewBox="0 0 100 100" fill="none" xmlns="http://www.w3.org/2000/svg">
<rect width="100" height="100" fill="#F5F5F5"/>
<ellipse cx="64" cy="34.5" rx="14" ry="15.5" fill="#D9D9D9"/>

<line x1="2" y1="49.5" x2="99" y2="49.5" stroke="black"/>
<path d="M27.0795 41H26.0227C25.9602 40.696 25.8509 40.429 25.6946 40.1989C25.5412 39.9688 25.3537 39.7756 25.1321 39.6193C24.9134 39.4602 24.6705 39.3409 24.4034 39.2614C24.1364 39.1818 23.858 39.142 23.5682 39.142C23.0398 39.142 22.5611 39.2756 22.1321 39.5426C21.706 39.8097 21.3665 40.2031 21.1136 40.723C20.8636 41.2429 20.7386 41.8807 20.7386 42.6364C20.7386 43.392 20.8636 44.0298 21.1136 44.5497C21.3665 45.0696 21.706 45.4631 22.1321 45.7301C22.5611 45.9972 23.0398 46.1307 23.5682 46.1307C23.858 46.1307 24.1364 46.0909 24.4034 46.0114C24.6705 45.9318 24.9134 45.8139 25.1321 45.6577C25.3537 45.4986 25.5412 45.304 25.6946 45.0739C25.8509 44.8409 25.9602 44.5739 26.0227 44.2727H27.0795C27 44.7187 26.8551 45.1179 26.6449 45.4702C26.4347 45.8224 26.1733 46.1222 25.8608 46.3693C25.5483 46.6136 25.1974 46.7997 24.8082 46.9276C24.4219 47.0554 24.0085 47.1193 23.5682 47.1193C22.8239 47.1193 22.1619 46.9375 21.5824 46.5739C21.0028 46.2102 20.5469 45.6932 20.2145 45.0227C19.8821 44.3523 19.7159 43.5568 19.7159 42.6364C19.7159 41.7159 19.8821 40.9205 20.2145 40.25C20.5469 39.5795 21.0028 39.0625 21.5824 38.6989C22.1619 38.3352 22.8239 38.1534 23.5682 38.1534C24.0085 38.1534 24.4219 38.2173 24.8082 38.3452C25.1974 38.473 25.5483 38.6605 25.8608 38.9077C26.1733 39.152 26.4347 39.4503 26.6449 39.8026C26.8551 40.152 27 40.5511 27.0795 41ZM30.5771 47.1534C30.1623 47.1534 29.7859 47.0753 29.4478 46.919C29.1097 46.7599 28.8413 46.5312 28.6424 46.233C28.4435 45.9318 28.3441 45.5682 28.3441 45.142C28.3441 44.767 28.418 44.4631 28.5657 44.2301C28.7134 43.9943 28.9109 43.8097 29.158 43.6761C29.4052 43.5426 29.6779 43.4432 29.9762 43.3778C30.2773 43.3097 30.5799 43.2557 30.8839 43.2159C31.2816 43.1648 31.604 43.1264 31.8512 43.1009C32.1012 43.0724 32.283 43.0256 32.3967 42.9602C32.5131 42.8949 32.5714 42.7812 32.5714 42.6193V42.5852C32.5714 42.1648 32.4563 41.8381 32.2262 41.6051C31.9989 41.3722 31.6538 41.2557 31.1907 41.2557C30.7106 41.2557 30.3342 41.3608 30.0614 41.571C29.7887 41.7812 29.5969 42.0057 29.4862 42.2443L28.5316 41.9034C28.7021 41.5057 28.9293 41.196 29.2134 40.9744C29.5004 40.75 29.8129 40.5937 30.1509 40.5057C30.4918 40.4148 30.8271 40.3693 31.1566 40.3693C31.3668 40.3693 31.6083 40.3949 31.881 40.446C32.1566 40.4943 32.4222 40.5952 32.6779 40.7486C32.9364 40.902 33.1509 41.1335 33.3214 41.4432C33.4918 41.7528 33.5771 42.1676 33.5771 42.6875V47H32.5714V46.1136H32.5202C32.4521 46.2557 32.3384 46.4077 32.1793 46.5696C32.0202 46.7315 31.8086 46.8693 31.5444 46.983C31.2802 47.0966 30.9577 47.1534 30.5771 47.1534ZM30.7305 46.25C31.1282 46.25 31.4634 46.1719 31.7362 46.0156C32.0117 45.8594 32.2191 45.6577 32.3583 45.4105C32.5004 45.1634 32.5714 44.9034 32.5714 44.6307V43.7102C32.5288 43.7614 32.435 43.8082 32.2901 43.8509C32.1481 43.8906 31.9833 43.9261 31.7958 43.9574C31.6112 43.9858 31.4308 44.0114 31.2546 44.0341C31.0813 44.054 30.9407 44.071 30.8327 44.0852C30.5714 44.1193 30.3271 44.1747 30.0998 44.2514C29.8754 44.3253 29.6935 44.4375 29.5543 44.5881C29.418 44.7358 29.3498 44.9375 29.3498 45.1932C29.3498 45.5426 29.479 45.8068 29.7376 45.9858C29.9989 46.1619 30.3299 46.25 30.7305 46.25ZM37.3388 47.1534C36.924 47.1534 36.5476 47.0753 36.2095 46.919C35.8714 46.7599 35.603 46.5312 35.4041 46.233C35.2053 45.9318 35.1058 45.5682 35.1058 45.142C35.1058 44.767 35.1797 44.4631 35.3274 44.2301C35.4751 43.9943 35.6726 43.8097 35.9197 43.6761C36.1669 43.5426 36.4396 43.4432 36.7379 43.3778C37.0391 43.3097 37.3416 43.2557 37.6456 43.2159C38.0433 43.1648 38.3658 43.1264 38.6129 43.1009C38.8629 43.0724 39.0447 43.0256 39.1584 42.9602C39.2749 42.8949 39.3331 42.7812 39.3331 42.6193V42.5852C39.3331 42.1648 39.218 41.8381 38.9879 41.6051C38.7607 41.3722 38.4155 41.2557 37.9524 41.2557C37.4723 41.2557 37.0959 41.3608 36.8232 41.571C36.5504 41.7812 36.3587 42.0057 36.2479 42.2443L35.2933 41.9034C35.4638 41.5057 35.6911 41.196 35.9751 40.9744C36.2621 40.75 36.5746 40.5937 36.9126 40.5057C37.2536 40.4148 37.5888 40.3693 37.9183 40.3693C38.1286 40.3693 38.37 40.3949 38.6428 40.446C38.9183 40.4943 39.1839 40.5952 39.4396 40.7486C39.6982 40.902 39.9126 41.1335 40.0831 41.4432C40.2536 41.7528 40.3388 42.1676 40.3388 42.6875V47H39.3331V46.1136H39.282C39.2138 46.2557 39.1001 46.4077 38.9411 46.5696C38.782 46.7315 38.5703 46.8693 38.3061 46.983C38.0419 47.0966 37.7195 47.1534 37.3388 47.1534ZM37.4922 46.25C37.8899 46.25 38.2251 46.1719 38.4979 46.0156C38.7734 45.8594 38.9808 45.6577 39.12 45.4105C39.2621 45.1634 39.3331 44.9034 39.3331 44.6307V43.7102C39.2905 43.7614 39.1967 43.8082 39.0518 43.8509C38.9098 43.8906 38.745 43.9261 38.5575 43.9574C38.3729 43.9858 38.1925 44.0114 38.0163 44.0341C37.843 44.054 37.7024 44.071 37.5945 44.0852C37.3331 44.1193 37.0888 44.1747 36.8615 44.2514C36.6371 44.3253 36.4553 44.4375 36.3161 44.5881C36.1797 44.7358 36.1115 44.9375 36.1115 45.1932C36.1115 45.5426 36.2408 45.8068 36.4993 45.9858C36.7607 46.1619 37.0916 46.25 37.4922 46.25ZM42.1744 47V40.4545H43.18V47H42.1744ZM42.6857 39.3636C42.4897 39.3636 42.3207 39.2969 42.1786 39.1634C42.0394 39.0298 41.9698 38.8693 41.9698 38.6818C41.9698 38.4943 42.0394 38.3338 42.1786 38.2003C42.3207 38.0668 42.4897 38 42.6857 38C42.8817 38 43.0494 38.0668 43.1886 38.2003C43.3306 38.3338 43.4016 38.4943 43.4016 38.6818C43.4016 38.8693 43.3306 39.0298 43.1886 39.1634C43.0494 39.2969 42.8817 39.3636 42.6857 39.3636ZM49.6584 41.9205L48.755 42.1761C48.6982 42.0256 48.6143 41.8793 48.5036 41.7372C48.3956 41.5923 48.2479 41.473 48.0604 41.3793C47.8729 41.2855 47.6328 41.2386 47.3402 41.2386C46.9396 41.2386 46.6058 41.331 46.3388 41.5156C46.0746 41.6974 45.9425 41.929 45.9425 42.2102C45.9425 42.4602 46.0334 42.6577 46.2152 42.8026C46.397 42.9474 46.6811 43.0682 47.0675 43.1648L48.0391 43.4034C48.6243 43.5455 49.0604 43.7628 49.3473 44.0554C49.6342 44.3452 49.7777 44.7187 49.7777 45.1761C49.7777 45.5511 49.6697 45.8864 49.4538 46.1818C49.2408 46.4773 48.9425 46.7102 48.5589 46.8807C48.1754 47.0511 47.7294 47.1364 47.2209 47.1364C46.5533 47.1364 46.0007 46.9915 45.5632 46.7017C45.1257 46.4119 44.8487 45.9886 44.7322 45.4318L45.6868 45.1932C45.7777 45.5455 45.9496 45.8097 46.2024 45.9858C46.4581 46.1619 46.7919 46.25 47.2038 46.25C47.6726 46.25 48.0447 46.1506 48.3203 45.9517C48.5987 45.75 48.7379 45.5085 48.7379 45.2273C48.7379 45 48.6584 44.8097 48.4993 44.6562C48.3402 44.5 48.0959 44.3835 47.7663 44.3068L46.6754 44.0511C46.076 43.9091 45.6357 43.6889 45.3544 43.3906C45.076 43.0895 44.9368 42.7131 44.9368 42.2614C44.9368 41.892 45.0405 41.5653 45.2479 41.2812C45.4581 40.9972 45.7436 40.7741 46.1044 40.6122C46.468 40.4503 46.88 40.3693 47.3402 40.3693C47.9879 40.3693 48.4964 40.5114 48.8658 40.7955C49.2379 41.0795 49.5021 41.4545 49.6584 41.9205ZM54.6495 47V46.233L57.5302 43.0795C57.8683 42.7102 58.1467 42.3892 58.3654 42.1165C58.5842 41.8409 58.7461 41.5824 58.8512 41.3409C58.9592 41.0966 59.0131 40.8409 59.0131 40.5739C59.0131 40.267 58.9393 40.0014 58.7915 39.777C58.6467 39.5526 58.4478 39.3793 58.195 39.2571C57.9421 39.1349 57.658 39.0739 57.3427 39.0739C57.0075 39.0739 56.7148 39.1435 56.4648 39.2827C56.2177 39.419 56.0259 39.6108 55.8896 39.858C55.756 40.1051 55.6893 40.3949 55.6893 40.7273H54.6836C54.6836 40.2159 54.8015 39.767 55.0373 39.3807C55.2731 38.9943 55.5941 38.6932 56.0004 38.4773C56.4094 38.2614 56.8683 38.1534 57.3768 38.1534C57.8881 38.1534 58.3413 38.2614 58.7362 38.4773C59.131 38.6932 59.4407 38.9844 59.6651 39.3509C59.8896 39.7173 60.0018 40.125 60.0018 40.5739C60.0018 40.8949 59.9435 41.2088 59.8271 41.5156C59.7134 41.8196 59.5146 42.1591 59.2305 42.5341C58.9492 42.9062 58.5586 43.3608 58.0586 43.8977L56.0984 45.9943V46.0625H60.1552V47H54.6495ZM67.0458 45.4318L62.239 40.625L62.8867 39.9773L67.6935 44.7841L67.0458 45.4318ZM62.8867 45.4318L62.239 44.7841L67.0458 39.9773L67.6935 40.625L62.8867 45.4318ZM72.8935 38.2727V47H71.8366V39.3807H71.7855L69.6548 40.7955V39.7216L71.8366 38.2727H72.8935ZM78.3011 47.1193C77.9432 47.1136 77.5852 47.0455 77.2273 46.9148C76.8693 46.7841 76.5426 46.5639 76.2472 46.2543C75.9517 45.9418 75.7145 45.5199 75.5355 44.9886C75.3565 44.4545 75.267 43.7841 75.267 42.9773C75.267 42.2045 75.3395 41.5199 75.4844 40.9233C75.6293 40.3239 75.8395 39.8196 76.1151 39.4105C76.3906 38.9986 76.723 38.6861 77.1122 38.473C77.5043 38.2599 77.946 38.1534 78.4375 38.1534C78.9261 38.1534 79.3608 38.2514 79.7415 38.4474C80.125 38.6406 80.4375 38.9105 80.679 39.2571C80.9205 39.6037 81.0767 40.0028 81.1477 40.4545H80.108C80.0114 40.0625 79.8239 39.7372 79.5455 39.4787C79.267 39.2202 78.8977 39.0909 78.4375 39.0909C77.7614 39.0909 77.2287 39.3849 76.8395 39.973C76.4531 40.5611 76.2585 41.3864 76.2557 42.4489H76.3239C76.483 42.2074 76.6719 42.0014 76.8906 41.831C77.1122 41.6577 77.3565 41.5241 77.6236 41.4304C77.8906 41.3366 78.1733 41.2898 78.4716 41.2898C78.9716 41.2898 79.429 41.4148 79.8438 41.6648C80.2585 41.9119 80.5909 42.2543 80.8409 42.6918C81.0909 43.1264 81.2159 43.625 81.2159 44.1875C81.2159 44.7273 81.0952 45.2216 80.8537 45.6705C80.6122 46.1165 80.2727 46.4716 79.8352 46.7358C79.4006 46.9972 78.8892 47.125 78.3011 47.1193ZM78.3011 46.1818C78.6591 46.1818 78.9801 46.0923 79.2642 45.9134C79.5511 45.7344 79.777 45.4943 79.9418 45.1932C80.1094 44.892 80.1932 44.5568 80.1932 44.1875C80.1932 43.8267 80.1122 43.4986 79.9503 43.2031C79.7912 42.9048 79.571 42.6676 79.2898 42.4915C79.0114 42.3153 78.6932 42.2273 78.3352 42.2273C78.0653 42.2273 77.8139 42.2812 77.581 42.3892C77.348 42.4943 77.1435 42.6392 76.9673 42.8239C76.794 43.0085 76.6577 43.2202 76.5582 43.4588C76.4588 43.6946 76.4091 43.9432 76.4091 44.2045C76.4091 44.5511 76.4901 44.875 76.652 45.1761C76.8168 45.4773 77.0412 45.7202 77.3253 45.9048C77.6122 46.0895 77.9375 46.1818 78.3011 46.1818Z" fill="black"/>
</svg>
